<svg width="125" height="66" viewBox="0 0 1121 259" fill="none" xmlns="http://www.w3.org/2000/svg">
<path d="M300.273 196H260.3V140.743H232.789V196H192.346V49.9813H232.789V107.354H260.3V49.9813H300.273V196ZM356.463 196H317.665V84.5461H356.463V196ZM320.722 75.611C317.43 72.7894 315.784 68.2435 315.784 61.9732C315.784 55.7029 317.43 51.0786 320.722 48.1002C324.014 45.1219 329.422 43.6327 336.946 43.6327C344.471 43.6327 349.879 45.1219 353.171 48.1002C356.463 51.0786 358.109 55.7029 358.109 61.9732C358.109 68.0867 356.463 72.6326 353.171 75.611C349.879 78.4326 344.471 79.8434 336.946 79.8434C329.422 79.8434 324.014 78.4326 320.722 75.611ZM434.862 196.235C423.262 197.646 413.151 198.351 404.529 198.351C396.064 198.351 389.402 196.157 384.543 191.768C379.84 187.222 377.489 179.462 377.489 168.489V113.938H366.202V84.7813H379.37L381.486 63.1489H416.991V84.7813H437.918L436.273 113.938H416.756V160.73C416.756 164.022 418.324 165.668 421.459 165.668C421.773 165.668 426.632 165.432 436.037 164.962L434.862 196.235ZM598.596 96.3029C598.596 105.081 597.264 112.37 594.599 118.17C591.934 123.97 587.78 129.222 582.137 133.924L601.653 196H558.153L543.575 143.33H538.167V196H498.664V49.9813H553.215C568.891 49.9813 580.334 53.6651 587.545 61.0327C594.913 68.4002 598.596 80.157 598.596 96.3029ZM544.28 118.641C548.356 118.641 551.256 117.465 552.98 115.114C554.704 112.762 555.567 108.53 555.567 102.416C555.567 96.1461 554.704 91.8353 552.98 89.484C551.256 86.9759 548.434 85.7218 544.515 85.7218H538.167V118.641H544.28ZM658.589 114.173C654.513 114.173 651.848 115.584 650.594 118.406C649.34 121.07 648.713 125.224 648.713 130.868H669.17V125.224C669.17 117.857 665.643 114.173 658.589 114.173ZM659.529 80.5488C675.675 80.5488 687.197 84.4678 694.094 92.3056C701.148 99.9866 704.675 111.038 704.675 125.46C704.675 127.341 704.126 135.806 703.029 150.854H649.418C649.418 162.611 654.827 168.489 665.643 168.489C670.816 168.489 680.927 166.687 695.975 163.081L699.267 192.238C686.099 196.314 672.932 198.351 659.764 198.351C643.618 198.351 631.235 193.1 622.613 182.597C613.991 171.938 609.681 157.516 609.681 139.333C609.681 100.143 626.297 80.5488 659.529 80.5488ZM843.259 83.3705L828.916 196H785.887L776.716 148.503H775.07L766.135 196H724.046L709.703 83.3705H745.914L750.852 140.273H752.733L760.727 83.3705H793.411L801.17 140.273H803.287L808.46 83.3705H843.259ZM891.256 196H852.459V84.5461H891.256V196ZM855.516 75.611C852.224 72.7894 850.578 68.2435 850.578 61.9732C850.578 55.7029 852.224 51.0786 855.516 48.1002C858.808 45.1219 864.216 43.6327 871.74 43.6327C879.264 43.6327 884.673 45.1219 887.964 48.1002C891.256 51.0786 892.902 55.7029 892.902 61.9732C892.902 68.0867 891.256 72.6326 887.964 75.611C884.673 78.4326 879.264 79.8434 871.74 79.8434C864.216 79.8434 858.808 78.4326 855.516 75.611ZM945.437 91.6002C954.058 84.2326 963.542 80.5488 973.888 80.5488C984.234 80.5488 991.445 82.9786 995.52 87.838C999.753 92.5407 1001.87 99.6731 1001.87 109.235V196H961.896V122.638C961.896 118.719 960.172 116.76 956.723 116.76C952.334 116.76 948.65 117.857 945.672 120.051V196H906.169V83.3705H942.145L944.496 91.6002H945.437ZM1115.63 197.411L1099.87 198.351C1087.8 198.351 1080.43 194.354 1077.77 186.359H1076.59C1071.42 194.354 1063.5 198.351 1052.85 198.351C1038.74 198.351 1028.78 193.414 1022.98 183.538C1017.34 173.662 1014.52 159.005 1014.52 139.568C1014.52 119.973 1017.73 105.238 1024.16 95.3623C1030.59 85.4867 1039.83 80.5488 1051.9 80.5488C1060.21 80.5488 1066.64 82.5083 1071.19 86.4272V45.2786H1110.45V161.435C1110.45 164.414 1111.08 166.451 1112.33 167.549C1113.59 168.489 1115.86 168.96 1119.15 168.96L1115.63 197.411ZM1062.25 113.703C1058.96 113.703 1056.76 115.741 1055.67 119.816C1054.57 123.735 1054.02 129.457 1054.02 136.981C1054.02 144.349 1054.1 149.365 1054.26 152.03C1054.41 154.695 1054.73 157.438 1055.2 160.26C1055.82 162.924 1056.69 164.805 1057.78 165.903C1059.04 166.843 1061 167.314 1063.66 167.314C1066.48 167.314 1069.38 166.608 1072.36 165.197V116.524C1069.07 114.643 1065.7 113.703 1062.25 113.703Z" fill="white"/>
<path d="M-3.71547e-06 122L103.5 48.3878L103.5 195.612L-3.71547e-06 122Z" fill="#FFF61D"/>
<path d="M59 122L162.5 48.3878L162.5 195.612L59 122Z" fill="#FFF61D"/>
</svg>
