<svg width="125" height="66" viewBox="0 0 125 66" fill="none" xmlns="http://www.w3.org/2000/svg">
<path d="M82.9714 62.8571H55.9429L49.9714 43.9999L41.1714 51.8571L32.0571 43.9999L25.7714 62.8571H0L6.91429 6.28564H37.4L40.8571 16.0285L44.6286 6.28564H75.1143L82.9714 62.8571Z" fill="#0067D9"/>
<path d="M87.3715 59.4H88.4545L88.3056 58.3274L80.4484 1.75602L80.3353 0.942871H79.5144H50.9144H50.4268L50.145 1.34074L45.5715 7.79738L40.998 1.34074L40.7162 0.942871H40.2286H11.3144H10.4797L10.3785 1.77134L3.46418 58.3428L3.33496 59.4H4.40008H30.1715H30.8511L31.066 58.7553L36.907 41.2325L44.9559 48.1713L45.5824 48.7114L46.1995 48.1605L53.9126 41.2738L59.4441 58.7418L59.6525 59.4H60.3429H87.3715Z" fill="#FFE72F" stroke="black" stroke-width="1.88571"/>
<path d="M68.0322 20.7145C63.2054 18.778 60.5462 24.9344 62.2286 26.7147C65.7448 30.8078 72.5554 37.8523 74.1714 40.229C76.191 43.1997 73.4184 50.6203 69.8274 60.5229C66.2363 70.4253 80.7708 64.188 79.2 60.0287C77.6292 55.8696 79.7022 41.1139 83.0689 35.3704C86.4355 29.6269 92.3793 19.6134 89.5714 17.6002C84.1808 13.7356 80.1429 32.4943 76.3362 32.1743C74.0036 31.9782 75.8874 23.8662 68.0322 20.7145Z" fill="#9532AA"/>
<path d="M88.782 43.9703V40.3997H104.157V43.9703H98.6411V58.5903H94.3065V43.9703H88.782ZM110.434 40.3997L114.502 53.7229H114.653L118.721 40.3997H123.642L117.505 58.5903H111.651L105.513 40.3997H110.434Z" fill="#A789FD"/>
</svg>
